# xmcd CD database file
#
# Track frame offsets:
#	150
#	12616
#	31173
#	44889
#	57396
#	72787
#	85555
#	97862
#	113555
#	132110
#	144468
#	160766
#	174997
#	186405
#	199468
#	218268
#
# Disc length: 3131 seconds
#
# Revision: 0
# Processed by: cddbd v1.5.1PL0 Copyright (c) Steve Scherf et al.
# Submitted via: CDex 1.51
#
DISCID=d70c3910
DTITLE=Björk Gudmunsdóttir and trió Gudmundsr Ingólfssonar - Gling-Gló
DYEAR=1990
DGENRE=Jazz
TTITLE0=Gling Gló
TTITLE1=Luktar-Gvendur
TTITLE2=	Kata Rokkar
TTITLE3=Pabbi Minn
TTITLE4=	Brestir Og Brak
TTITLE5=Ástartöfrar
TTITLE6=Bella Simamaer
TTITLE7=	Litli Tónlistarmadurinn
TTITLE8=Pad Sést Ekki Asetari Mey
TTITLE9=Bílavisur
TTITLE10=Tondeleyo
TTITLE11=Ég veit ei hvad skal segja
TTITLE12=Í Dansi Med pér
TTITLE13=Börnin vid Tjörnina
TTITLE14=Ruby Baby
TTITLE15=I can´t help loving that man
EXTD=YEAR: 1990
EXTT0=
EXTT1=
EXTT2=
EXTT3=
EXTT4=
EXTT5=
EXTT6=
EXTT7=
EXTT8=
EXTT9=
EXTT10=
EXTT11=
EXTT12=
EXTT13=
EXTT14=
EXTT15=
PLAYORDER=
